# xmcd CD database file
#
# Track frame offsets:
#	150
#	18093
#	34335
#	77904
#	118957
#
# Disc length: 2184 seconds
#
# Revision: 0
# Processed by: cddbd v1.4PL0 Copyright (c) Steve Scherf et al.
# Submitted via: CDex 1.51
#
DISCID=39088605
DTITLE=Conjure One - Center Of The Sun [CDM)
DYEAR=2003
DGENRE=New Age
TTITLE0=Conjure One - Center Of The Sun (Pete Lorimer - 29 Palms Remix (Edit))
TTITLE1=Conjure One - Center Of The Sun (Album Version (Edit))
TTITLE2=Conjure One - Center Of The Sun (Junkie XL Remix)
TTITLE3=Conjure One - Center Of The Sun (Pete Lorimer - 29 Palms Remix)
TTITLE4=Conjure One - Center Of The Sun (Solarstone's Chilled-Out Remix)
EXTD=YEAR: 2003
EXTT0=
EXTT1=
EXTT2=
EXTT3=
EXTT4=
PLAYORDER=
